<?xml version="1.0" encoding="UTF-8"?>
<svg version="1.1" xmlns="http://www.w3.org/2000/svg" width="224" height="225">
<path d="M0 0 C73.92 0 147.84 0 224 0 C224 74.25 224 148.5 224 225 C150.08 225 76.16 225 0 225 C0 150.75 0 76.5 0 0 Z " fill="#082B33" transform="translate(0,0)"/>
<path d="M0 0 C0.66 0 1.32 0 2 0 C3.44601565 3.76762122 4.8801931 7.53964818 6.3125 11.3125 C6.71662109 12.36501953 7.12074219 13.41753906 7.53710938 14.50195312 C10.091997 21.25267246 12.24453263 27.99818804 14 35 C17.79302327 33.27379846 21.58415889 31.54348782 25.375 29.8125 C26.43589844 29.32974609 27.49679688 28.84699219 28.58984375 28.34960938 C34.46032225 25.66647656 40.25505686 22.90406394 45.96337891 19.8894043 C48 19 48 19 51 19 C49.56211601 23.66527427 47.67059409 27.99482683 45.5234375 32.3671875 C45.19332672 33.04677521 44.86321594 33.72636292 44.52310181 34.42654419 C43.47718564 36.57773005 42.42618383 38.7263841 41.375 40.875 C40.66111973 42.34098099 39.94757462 43.80712525 39.234375 45.2734375 C37.49345409 48.85085827 35.74797055 52.42601883 34 56 C34.62946533 56.15637939 35.25893066 56.31275879 35.9074707 56.47387695 C43.8703843 58.53950689 51.49716025 61.28133926 59.1875 64.1875 C60.43798366 64.65604592 61.6886339 65.12414751 62.93945312 65.59179688 C65.96129417 66.72352885 68.98139651 67.85966711 72 69 C70.36970697 72.26058606 66.85069932 72.68583085 63.5703125 73.8203125 C62.82417694 74.08383514 62.07804138 74.34735779 61.30929565 74.61886597 C59.72842354 75.17536219 58.14627817 75.72825238 56.56298828 76.27783203 C54.13895986 77.12014914 51.71969055 77.97513916 49.30078125 78.83203125 C47.76589204 79.37055338 46.23074395 79.90833835 44.6953125 80.4453125 C43.97022491 80.70152374 43.24513733 80.95773499 42.49807739 81.22171021 C39.53679475 82.24397338 37.15670276 83 34 83 C35.79531244 86.87830332 37.59182184 90.75604927 39.3894043 94.63330078 C39.99975337 95.95020841 40.60978484 97.26726328 41.21948242 98.58447266 C42.09989702 100.48639855 42.98148246 102.38777804 43.86328125 104.2890625 C44.39219971 105.43068848 44.92111816 106.57231445 45.46606445 107.74853516 C46.49624881 109.93220462 47.57408835 112.09396597 48.69604492 114.23193359 C50 117 50 117 50 120 C45.65567261 119.3634984 42.20230371 117.8061468 38.2734375 115.875 C37.64394196 115.56804199 37.01444641 115.26108398 36.36587524 114.94482422 C34.36620685 113.96864088 32.37047226 112.98472847 30.375 112 C28.37174458 111.01665368 26.36769948 110.03496398 24.36270142 109.05517578 C22.54801172 108.16758906 20.7356156 107.27531766 18.92333984 106.3828125 C16.0348908 104.94507658 16.0348908 104.94507658 13 104 C12.88519287 104.84401367 12.77038574 105.68802734 12.65209961 106.55761719 C11.95253973 110.25053904 10.85551267 113.54826693 9.56640625 117.078125 C9.20940895 118.05709747 9.20940895 118.05709747 8.84519958 119.05584717 C8.34431323 120.42490715 7.84077763 121.79300052 7.3347168 123.16015625 C6.56068276 125.25491797 5.79841706 127.3537094 5.03710938 129.453125 C4.54757346 130.78671493 4.05736272 132.12005739 3.56640625 133.453125 C3.12240479 134.66129883 2.67840332 135.86947266 2.22094727 137.11425781 C1 140 1 140 -1 142 C-2.4204889 138.2514371 -3.83565872 134.50088628 -5.25 130.75 C-5.64574219 129.70585937 -6.04148437 128.66171875 -6.44921875 127.5859375 C-14 107.53304303 -14 107.53304303 -14 104 C-15.3614917 104.66588135 -15.3614917 104.66588135 -16.75048828 105.34521484 C-20.13684009 107.00019114 -23.52557886 108.65022856 -26.91503906 110.29882812 C-28.37825438 111.01136161 -29.84082976 111.72521088 -31.30273438 112.44042969 C-33.41106655 113.47161668 -35.52169826 114.4979605 -37.6328125 115.5234375 C-38.60349167 116.00011368 -38.60349167 116.00011368 -39.59378052 116.48641968 C-43.32596517 118.29272602 -47.03785199 119.77882652 -51 121 C-48.64636136 113.03841371 -45.10552606 105.93075105 -41.3125 98.5625 C-40.11621199 96.23288651 -38.9259999 93.90042705 -37.73828125 91.56640625 C-37.21274658 90.54490479 -36.68721191 89.52340332 -36.14575195 88.47094727 C-34.85977794 86.15153829 -34.85977794 86.15153829 -35 84 C-35.9787207 83.65219482 -36.95744141 83.30438965 -37.96582031 82.94604492 C-41.60620136 81.65030312 -45.24325798 80.34544225 -48.87939453 79.0378418 C-50.45174809 78.47383485 -52.02498512 77.91228444 -53.59912109 77.35327148 C-55.86534165 76.54799728 -58.12820814 75.7338589 -60.390625 74.91796875 C-61.44240936 74.54746651 -61.44240936 74.54746651 -62.51544189 74.16947937 C-66.11088076 72.86268259 -69.09414047 71.51167904 -72 69 C-62.49618852 65.47388773 -52.98671269 61.96410182 -43.4375 58.5625 C-42.71828369 58.30388184 -41.99906738 58.04526367 -41.25805664 57.77880859 C-36.23435492 56 -36.23435492 56 -34 56 C-34.4846875 54.98574951 -34.969375 53.97149902 -35.46875 52.92651367 C-37.26366086 49.1665851 -39.05094629 45.40307438 -40.8359375 41.63842773 C-41.60989834 40.00885709 -42.38593006 38.38026835 -43.1640625 36.75268555 C-44.28149193 34.41449297 -45.39145222 32.07288264 -46.5 29.73046875 C-46.84998047 29.00224411 -47.19996094 28.27401947 -47.56054688 27.52372742 C-50 22.34161512 -50 22.34161512 -50 19 C-42.31904613 21.32214885 -35.31686349 24.58788022 -28.125 28.125 C-25.89917384 29.21244596 -23.67264424 30.29845363 -21.4453125 31.3828125 C-19.98375732 32.10041748 -19.98375732 32.10041748 -18.49267578 32.83251953 C-15.95792436 34.0784741 -15.95792436 34.0784741 -13 35 C-12.87689453 34.30092529 -12.75378906 33.60185059 -12.62695312 32.8815918 C-11.95248039 29.78159115 -11.01122467 26.89072664 -9.96875 23.89453125 C-9.57042969 22.74662109 -9.17210937 21.59871094 -8.76171875 20.41601562 C-8.34535156 19.22685547 -7.92898437 18.03769531 -7.5 16.8125 C-6.87544922 15.01135742 -6.87544922 15.01135742 -6.23828125 13.17382812 C-3.14568356 4.29136712 -3.14568356 4.29136712 -2 2 C-1.34 2 -0.68 2 0 2 C0 1.34 0 0.68 0 0 Z " fill="#082B33" transform="translate(112,43)"/>
<path d="M0 0 C4.10917209 1.48921468 8.21675356 2.98271808 12.32299805 4.47998047 C13.71613727 4.9873077 15.10968295 5.49352038 16.50366211 5.99853516 C24.11967066 8.75855261 31.64832 11.58061395 39 15 C37.004167 22.01493966 33.3919061 28.31234581 30.07617188 34.76953125 C27.36754463 40.09905693 24.96897457 45.35338141 23 51 C23.71019287 50.65743164 24.42038574 50.31486328 25.15209961 49.96191406 C28.41322243 48.38986657 31.67535246 46.81991991 34.9375 45.25 C36.05447266 44.71117187 37.17144531 44.17234375 38.32226562 43.6171875 C56.23971037 35 56.23971037 35 59 35 C60.4204889 38.7485629 61.83565872 42.49911372 63.25 46.25 C63.64574219 47.29414063 64.04148437 48.33828125 64.44921875 49.4140625 C66.48156184 54.81143268 68.46730218 60.22361711 70.359375 65.671875 C70.69936523 66.64737305 71.03935547 67.62287109 71.38964844 68.62792969 C72 71 72 71 71 73 C69.04034952 70.39682213 67.08251018 67.79228758 65.125 65.1875 C64.56941406 64.44951172 64.01382813 63.71152344 63.44140625 62.95117188 C62.63896484 61.88286133 62.63896484 61.88286133 61.8203125 60.79296875 C61.08192139 59.81106567 61.08192139 59.81106567 60.32861328 58.80932617 C59.17467505 57.23787519 58.08145651 55.62218477 57 54 C56.34 54 55.68 54 55 54 C53.64073429 55.82611381 53.64073429 55.82611381 52.3203125 58.19921875 C51.80339844 59.07900391 51.28648438 59.95878906 50.75390625 60.86523438 C50.21636719 61.79658203 49.67882812 62.72792969 49.125 63.6875 C42.68734644 74.76934889 42.68734644 74.76934889 39 79 C40.27022979 71.96735667 42.01216318 65.19875528 44.125 58.375 C44.40214844 57.46621094 44.67929688 56.55742187 44.96484375 55.62109375 C45.63897877 53.41272041 46.31739977 51.20576837 47 49 C46.32420898 49.12640869 45.64841797 49.25281738 44.95214844 49.38305664 C41.88629599 49.95151898 38.8182509 50.50713559 35.75 51.0625 C34.68652344 51.26166016 33.62304688 51.46082031 32.52734375 51.66601562 C30.99013672 51.94155273 30.99013672 51.94155273 29.421875 52.22265625 C28.47924805 52.39547119 27.53662109 52.56828613 26.56542969 52.74633789 C24 53 24 53 20 52 C21.65 43.09 23.3 34.18 25 25 C23.35 25.66 21.7 26.32 20 27 C18.30090111 27.45405242 16.59154282 27.87104675 14.875 28.25390625 C13.92109375 28.46853516 12.9671875 28.68316406 11.984375 28.90429688 C10.99953125 29.12150391 10.0146875 29.33871094 9 29.5625 C8.01515625 29.78357422 7.0303125 30.00464844 6.015625 30.23242188 C1.68514502 31.20092787 -2.64626995 32.14125015 -7 33 C-4.50681056 30.18177252 -1.76116891 28.62898444 1.54296875 26.86328125 C2.61611328 26.28642578 3.68925781 25.70957031 4.79492188 25.11523438 C5.91447266 24.52033203 7.03402344 23.92542969 8.1875 23.3125 C9.31865234 22.70599609 10.44980469 22.09949219 11.61523438 21.47460938 C14.407629 19.97826289 17.2025912 18.48694524 20 17 C15.56571141 12.20408011 10.58429094 8.95800795 5.08789062 5.48632812 C3.36043637 4.37156701 1.67581146 3.19098551 0 2 C0 1.34 0 0.68 0 0 Z " fill="#0F6B89" transform="translate(39,112)"/>
<path d="M0 0 C1.43311506 2.86623013 0.49401252 4.3071596 -0.43359375 7.33984375 C-0.9121582 8.9340918 -0.9121582 8.9340918 -1.40039062 10.56054688 C-1.91375977 12.23213867 -1.91375977 12.23213867 -2.4375 13.9375 C-3.10647653 16.13301726 -3.7720044 18.32958917 -4.43359375 20.52734375 C-4.73322021 21.50437256 -5.03284668 22.48140137 -5.34155273 23.48803711 C-6.12677919 26.05085554 -6.12677919 26.05085554 -6 29 C-5.31897217 28.87882812 -4.63794434 28.75765625 -3.9362793 28.6328125 C-0.85381578 28.08589412 2.22932678 27.5429026 5.3125 27 C6.38435547 26.80921875 7.45621094 26.6184375 8.56054688 26.421875 C9.58857422 26.24140625 10.61660156 26.0609375 11.67578125 25.875 C12.62364502 25.70742188 13.57150879 25.53984375 14.5480957 25.3671875 C17 25 17 25 20 25 C19.3583007 29.10482421 18.71093527 33.20873492 18.0625 37.3125 C17.88009766 38.47974609 17.69769531 39.64699219 17.50976562 40.84960938 C17.24389648 42.52700195 17.24389648 42.52700195 16.97265625 44.23828125 C16.81031494 45.26993408 16.64797363 46.30158691 16.48071289 47.36450195 C16 50 16 50 15 53 C15.93199219 52.74605469 16.86398438 52.49210937 17.82421875 52.23046875 C24.28198984 50.48141808 30.74930796 48.77053211 37.25 47.1875 C38.28640625 46.93355469 39.3228125 46.67960937 40.390625 46.41796875 C43 46 43 46 46 47 C42.44003818 48.96297379 38.87660169 50.91955438 35.3125 52.875 C33.80139648 53.70837891 33.80139648 53.70837891 32.25976562 54.55859375 C31.28330078 55.09355469 30.30683594 55.62851563 29.30078125 56.1796875 C28.40528564 56.67194824 27.50979004 57.16420898 26.5871582 57.67138672 C24.1024851 58.94736964 21.60962783 60.00879384 19 61 C19 61.66 19 62.32 19 63 C19.66386719 63.21398437 20.32773438 63.42796875 21.01171875 63.6484375 C25.02499746 65.46359362 28.30714157 67.98172494 31.8125 70.625 C32.50537109 71.140625 33.19824219 71.65625 33.91210938 72.1875 C35.61173663 73.45342926 37.30637435 74.72605265 39 76 C34.80776412 77.39741196 31.99543976 75.77645202 28.05078125 74.25390625 C27.27816452 73.96394272 26.50554779 73.67397919 25.70951843 73.37522888 C23.24047507 72.44631262 20.77654006 71.50459768 18.3125 70.5625 C16.64029422 69.9307922 14.96777169 69.29992219 13.29492188 68.66992188 C9.19287466 67.12298198 5.09536293 65.56454551 1 64 C2.43788399 59.33472573 4.32940591 55.00517317 6.4765625 50.6328125 C6.80667328 49.95322479 7.13678406 49.27363708 7.47689819 48.57345581 C8.52281436 46.42226995 9.57381617 44.2736159 10.625 42.125 C11.33888027 40.65901901 12.05242538 39.19287475 12.765625 37.7265625 C14.50654591 34.14914173 16.25202945 30.57398117 18 27 C14.12169668 28.79531244 10.24395073 30.59182184 6.36669922 32.3894043 C5.04979159 32.99975337 3.73273672 33.60978484 2.41552734 34.21948242 C0.51360145 35.09989702 -1.38777804 35.98148246 -3.2890625 36.86328125 C-4.43068848 37.39219971 -5.57231445 37.92111816 -6.74853516 38.46606445 C-8.93220462 39.49624881 -11.09396597 40.57408835 -13.23193359 41.69604492 C-16 43 -16 43 -19 43 C-20.69534824 38.39354783 -22.38587464 33.78536534 -24.07202148 29.17553711 C-24.64590473 27.60864968 -25.22108619 26.04223709 -25.79760742 24.47631836 C-26.6276347 22.2211364 -27.45292744 19.96426947 -28.27734375 17.70703125 C-28.53466782 17.01100296 -28.79199188 16.31497467 -29.05711365 15.59785461 C-30.33307383 12.08986696 -31.39740436 8.68738573 -32 5 C-28.22167289 8.5084466 -25.27666344 12.47823276 -22.25 16.625 C-21.74339844 17.305625 -21.23679687 17.98625 -20.71484375 18.6875 C-20.23660156 19.33976562 -19.75835937 19.99203125 -19.265625 20.6640625 C-18.83024414 21.25654785 -18.39486328 21.8490332 -17.94628906 22.45947266 C-17 24 -17 24 -17 26 C-16.34 26 -15.68 26 -15 26 C-14.73268066 25.27981689 -14.46536133 24.55963379 -14.18994141 23.81762695 C-12.99263742 20.98256638 -11.5922449 18.52486195 -9.9609375 15.91796875 C-9.38085938 14.98662109 -8.80078125 14.05527344 -8.203125 13.09570312 C-7.59984375 12.13599609 -6.9965625 11.17628906 -6.375 10.1875 C-5.45847656 8.71893555 -5.45847656 8.71893555 -4.5234375 7.22070312 C-3.01918285 4.81154528 -1.5112726 2.40475932 0 0 Z " fill="#05B2D2" transform="translate(145,35)"/>
<path d="M0 0 C2.66960777 2.39306683 4.19875066 4.91841264 5.8828125 8.0703125 C6.41003906 9.04871094 6.93726563 10.02710938 7.48046875 11.03515625 C8.29451172 12.56462891 8.29451172 12.56462891 9.125 14.125 C10.20949069 16.14921331 11.29535354 18.17269227 12.3828125 20.1953125 C12.86121582 21.09266113 13.33961914 21.99000977 13.83251953 22.91455078 C14.83347263 24.92400281 14.83347263 24.92400281 16 26 C20.62 19.4 25.24 12.8 30 6 C31 8 31 8 30.24316406 10.67041016 C29.83807617 11.78206543 29.43298828 12.8937207 29.015625 14.0390625 C28.35433594 15.87017578 28.35433594 15.87017578 27.6796875 17.73828125 C27.20326385 19.03390523 26.72670029 20.32947778 26.25 21.625 C25.78837838 22.89688733 25.32743308 24.16902034 24.8671875 25.44140625 C22.6160154 31.64188893 20.3315024 37.8292903 18 44 C13.45739695 43.35433144 9.60935258 41.5840147 5.51171875 39.62109375 C4.4569207 39.12380516 4.4569207 39.12380516 3.3808136 38.61647034 C1.14722003 37.5619839 -1.08264821 36.49987249 -3.3125 35.4375 C-4.83114031 34.71889384 -6.35001808 34.00078929 -7.86914062 33.28320312 C-11.58220221 31.52793248 -15.291943 29.76581684 -19 28 C-18.62190186 28.80107178 -18.24380371 29.60214355 -17.85424805 30.42749023 C-16.43566091 33.43929666 -15.02166663 36.45317494 -13.6105957 39.46850586 C-13.00235879 40.76589562 -12.39237417 42.06246767 -11.78051758 43.3581543 C-8.42983476 50.45677996 -5.27110861 57.46516674 -3 65 C-3.69971924 65.25168945 -4.39943848 65.50337891 -5.12036133 65.76269531 C-8.35114427 66.92493559 -11.58182262 68.08746634 -14.8125 69.25 C-15.91271484 69.64574219 -17.01292969 70.04148437 -18.14648438 70.44921875 C-19.23896484 70.84238281 -20.33144531 71.23554687 -21.45703125 71.640625 C-22.54580566 72.03056641 -23.63458008 72.42050781 -24.75634766 72.82226562 C-26.91351274 73.60550846 -29.06440367 74.40625847 -31.20849609 75.22460938 C-32.19543457 75.59908203 -33.18237305 75.97355469 -34.19921875 76.359375 C-35.07795654 76.69936523 -35.95669434 77.03935547 -36.86206055 77.38964844 C-39 78 -39 78 -41 77 C-37.88069958 74.65896815 -34.7536553 72.3285107 -31.625 70 C-30.73554687 69.33226563 -29.84609375 68.66453125 -28.9296875 67.9765625 C-28.07890625 67.34492187 -27.228125 66.71328125 -26.3515625 66.0625 C-25.56604004 65.47597656 -24.78051758 64.88945313 -23.97119141 64.28515625 C-22 63 -22 63 -20 63 C-20 62.34 -20 61.68 -20 61 C-20.72687012 60.72599365 -21.45374023 60.4519873 -22.20263672 60.16967773 C-26.77181312 58.2591415 -30.89156186 55.61653263 -35.125 53.0625 C-36.48431641 52.25522461 -36.48431641 52.25522461 -37.87109375 51.43164062 C-38.74121094 50.90892578 -39.61132812 50.38621094 -40.5078125 49.84765625 C-41.29816895 49.37336182 -42.08852539 48.89906738 -42.90283203 48.41040039 C-44.86335577 47.09189682 -46.40288731 45.73175115 -48 44 C-37.58618423 46.72287843 -27.30001626 49.88048001 -17 53 C-17.12117188 52.32420898 -17.24234375 51.64841797 -17.3671875 50.95214844 C-17.91501142 47.885388 -18.45756017 44.81771713 -19 41.75 C-19.19078125 40.68652344 -19.3815625 39.62304688 -19.578125 38.52734375 C-19.84882812 36.99013672 -19.84882812 36.99013672 -20.125 35.421875 C-20.29257812 34.47924805 -20.46015625 33.53662109 -20.6328125 32.56542969 C-21 30 -21 30 -21 26 C-11.66666667 27.33333333 -2.33333333 28.66666667 7 30 C6.823479 29.33991943 6.64695801 28.67983887 6.46508789 27.99975586 C5.66007393 24.98009315 4.86124177 21.95882756 4.0625 18.9375 C3.78470703 17.89916016 3.50691406 16.86082031 3.22070312 15.79101562 C1.83528831 10.53311601 0.60580604 5.40624379 0 0 Z " fill="#0F6B89" transform="translate(81,34)"/>
<path d="M0 0 C4.65414676 0.63447725 8.54532793 2.53590796 12.70703125 4.59765625 C13.79512337 5.12823891 13.79512337 5.12823891 14.90519714 5.66954041 C17.21032386 6.79511865 19.51142105 7.92867335 21.8125 9.0625 C23.37929775 9.82930659 24.94635237 10.59558855 26.51367188 11.36132812 C30.34544988 13.23482179 34.17363532 15.1154766 38 17 C34.57908418 18.14030527 32.97312849 17.83657799 29.45703125 17.22265625 C28.38388672 17.03896484 27.31074219 16.85527344 26.20507812 16.66601562 C25.08552734 16.46685547 23.96597656 16.26769531 22.8125 16.0625 C21.68134766 15.86720703 20.55019531 15.67191406 19.38476562 15.47070312 C16.58864199 14.98698553 13.79387745 14.49649946 11 14 C11.17128418 14.61407715 11.34256836 15.2281543 11.51904297 15.86083984 C12.30808441 18.69787271 13.09156486 21.53641409 13.875 24.375 C14.14441406 25.34050781 14.41382813 26.30601562 14.69140625 27.30078125 C16.39550616 33.49372972 17.8364624 39.68290985 19 46 C16.18177252 43.50681056 14.62898444 40.76116891 12.86328125 37.45703125 C12.28642578 36.38388672 11.70957031 35.31074219 11.11523438 34.20507812 C10.52033203 33.08552734 9.92542969 31.96597656 9.3125 30.8125 C8.70599609 29.68134766 8.09949219 28.55019531 7.47460938 27.38476562 C5.97826289 24.592371 4.48694524 21.7974088 3 19 C-1.17781634 22.87671246 -4.22712043 27.03587533 -7.3125 31.8125 C-7.76689453 32.50537109 -8.22128906 33.19824219 -8.68945312 33.91210938 C-9.79831476 35.6045824 -10.89991438 37.30180958 -12 39 C-13.41070826 34.76787521 -11.75493509 31.83434843 -10.25390625 27.83203125 C-9.96394272 27.03721848 -9.67397919 26.2424057 -9.37522888 25.42350769 C-8.44624527 22.88325597 -7.50455937 20.34792794 -6.5625 17.8125 C-5.93079902 16.09210566 -5.2999291 14.37140593 -4.66992188 12.65039062 C-3.12290565 8.42998833 -1.56448046 4.21395797 0 0 Z " fill="#05B2D2" transform="translate(125,147)"/>
<path d="M0 0 C4.10917209 1.48921468 8.21675356 2.98271808 12.32299805 4.47998047 C13.71613727 4.9873077 15.10968295 5.49352038 16.50366211 5.99853516 C24.11967066 8.75855261 31.64832 11.58061395 39 15 C37.29350675 20.97272638 34.43930666 26.30608683 31.625 31.8125 C28.23477909 38.47056754 24.95139835 45.1343282 22 52 C20.87199028 48.58434439 21.133025 46.09259089 21.77734375 42.578125 C21.96103516 41.55332031 22.14472656 40.52851563 22.33398438 39.47265625 C22.53314453 38.40917969 22.73230469 37.34570312 22.9375 36.25 C23.23043945 34.63158203 23.23043945 34.63158203 23.52929688 32.98046875 C24.01215277 30.31887282 24.50264169 27.65891745 25 25 C24.28070313 25.30413818 23.56140625 25.60827637 22.8203125 25.92163086 C20.16913921 26.93532826 17.64158453 27.63684435 14.875 28.25390625 C13.92109375 28.46853516 12.9671875 28.68316406 11.984375 28.90429688 C10.99953125 29.12150391 10.0146875 29.33871094 9 29.5625 C8.01515625 29.78357422 7.0303125 30.00464844 6.015625 30.23242188 C1.68514502 31.20092787 -2.64626995 32.14125015 -7 33 C-4.50681056 30.18177252 -1.76116891 28.62898444 1.54296875 26.86328125 C2.61611328 26.28642578 3.68925781 25.70957031 4.79492188 25.11523438 C5.91447266 24.52033203 7.03402344 23.92542969 8.1875 23.3125 C9.31865234 22.70599609 10.44980469 22.09949219 11.61523438 21.47460938 C14.407629 19.97826289 17.2025912 18.48694524 20 17 C15.56571141 12.20408011 10.58429094 8.95800795 5.08789062 5.48632812 C3.36043637 4.37156701 1.67581146 3.19098551 0 2 C0 1.34 0 0.68 0 0 Z " fill="#05B3D3" transform="translate(39,112)"/>
<path d="M0 0 C-0.46897705 0.34780518 -0.9379541 0.69561035 -1.42114258 1.05395508 C-3.55349886 2.63759169 -5.68301773 4.22500118 -7.8125 5.8125 C-8.55048828 6.35970703 -9.28847656 6.90691406 -10.04882812 7.47070312 C-10.76103516 8.00244141 -11.47324219 8.53417969 -12.20703125 9.08203125 C-13.18893433 9.81256714 -13.18893433 9.81256714 -14.19067383 10.55786133 C-15.92520633 11.94038507 -17.46644587 13.40004028 -19 15 C-18.35450195 15.37286133 -17.70900391 15.74572266 -17.04394531 16.12988281 C-14.10884597 17.83015072 -11.179413 19.53995516 -8.25 21.25 C-7.23421875 21.83652344 -6.2184375 22.42304688 -5.171875 23.02734375 C-4.1921875 23.60097656 -3.2125 24.17460937 -2.203125 24.765625 C-0.85202637 25.55114746 -0.85202637 25.55114746 0.52636719 26.35253906 C3.01992048 28.01326721 4.96256618 29.81287716 7 32 C-2.77470084 29.6834524 -12.38142315 26.88329377 -22 24 C-21.37084903 31.67028737 -20.70900858 39.33667323 -20 47 C-24.02595915 42.05229808 -26.46265534 36.18546875 -29.20776367 30.47290039 C-30.18764926 28.43718991 -31.1783389 26.40698676 -32.16992188 24.37695312 C-32.79493082 23.08365207 -33.41930205 21.79004261 -34.04296875 20.49609375 C-34.89411255 18.73543579 -34.89411255 18.73543579 -35.76245117 16.93920898 C-37 14 -37 14 -37 11 C-32.2169481 9.26101926 -27.42979772 7.53404483 -22.63842773 5.81811523 C-21.00865984 5.23254169 -19.3800663 4.64368902 -17.75268555 4.05151367 C-15.41495012 3.20149284 -13.07326205 2.36330668 -10.73046875 1.52734375 C-10.00224411 1.25969711 -9.27401947 0.99205048 -8.52372742 0.71629333 C-3.34161512 -1.11387171 -3.34161512 -1.11387171 0 0 Z " fill="#0F6B89" transform="translate(183,115)"/>
<path d="M0 0 C1.43311506 2.86623013 0.49401252 4.3071596 -0.43359375 7.33984375 C-0.9121582 8.9340918 -0.9121582 8.9340918 -1.40039062 10.56054688 C-1.91375977 12.23213867 -1.91375977 12.23213867 -2.4375 13.9375 C-3.10647653 16.13301726 -3.7720044 18.32958917 -4.43359375 20.52734375 C-4.73322021 21.50437256 -5.03284668 22.48140137 -5.34155273 23.48803711 C-6.12677919 26.05085554 -6.12677919 26.05085554 -6 29 C-5.31897217 28.87882812 -4.63794434 28.75765625 -3.9362793 28.6328125 C-0.85381578 28.08589412 2.22932678 27.5429026 5.3125 27 C6.38435547 26.80921875 7.45621094 26.6184375 8.56054688 26.421875 C9.58857422 26.24140625 10.61660156 26.0609375 11.67578125 25.875 C12.62364502 25.70742188 13.57150879 25.53984375 14.5480957 25.3671875 C17 25 17 25 20 25 C20 25.66 20 26.32 20 27 C18.80117187 27.35707031 17.60234375 27.71414062 16.3671875 28.08203125 C9.01820144 30.53025399 2.1891279 34.17074559 -4.73242188 37.6105957 C-6.52499521 38.49905765 -8.32104339 39.38049793 -10.1171875 40.26171875 C-11.70442627 41.05002075 -11.70442627 41.05002075 -13.32373047 41.85424805 C-16 43 -16 43 -19 43 C-20.69534824 38.39354783 -22.38587464 33.78536534 -24.07202148 29.17553711 C-24.64590473 27.60864968 -25.22108619 26.04223709 -25.79760742 24.47631836 C-26.6276347 22.2211364 -27.45292744 19.96426947 -28.27734375 17.70703125 C-28.53466782 17.01100296 -28.79199188 16.31497467 -29.05711365 15.59785461 C-30.33307383 12.08986696 -31.39740436 8.68738573 -32 5 C-28.22167289 8.5084466 -25.27666344 12.47823276 -22.25 16.625 C-21.74339844 17.305625 -21.23679687 17.98625 -20.71484375 18.6875 C-20.23660156 19.33976562 -19.75835937 19.99203125 -19.265625 20.6640625 C-18.83024414 21.25654785 -18.39486328 21.8490332 -17.94628906 22.45947266 C-17 24 -17 24 -17 26 C-16.34 26 -15.68 26 -15 26 C-14.73268066 25.27981689 -14.46536133 24.55963379 -14.18994141 23.81762695 C-12.99263742 20.98256638 -11.5922449 18.52486195 -9.9609375 15.91796875 C-9.38085938 14.98662109 -8.80078125 14.05527344 -8.203125 13.09570312 C-7.59984375 12.13599609 -6.9965625 11.17628906 -6.375 10.1875 C-5.45847656 8.71893555 -5.45847656 8.71893555 -4.5234375 7.22070312 C-3.01918285 4.81154528 -1.5112726 2.40475932 0 0 Z " fill="#0F6B89" transform="translate(145,35)"/>
<path d="M0 0 C2.66960777 2.39306683 4.19875066 4.91841264 5.8828125 8.0703125 C6.41003906 9.04871094 6.93726562 10.02710938 7.48046875 11.03515625 C8.02316406 12.05480469 8.56585938 13.07445312 9.125 14.125 C10.20949069 16.14921331 11.29535354 18.17269227 12.3828125 20.1953125 C12.86121582 21.09266113 13.33961914 21.99000977 13.83251953 22.91455078 C14.83347263 24.92400281 14.83347263 24.92400281 16 26 C20.62 19.4 25.24 12.8 30 6 C31 8 31 8 30.24316406 10.67041016 C29.83807617 11.78206543 29.43298828 12.8937207 29.015625 14.0390625 C28.57476562 15.25980469 28.13390625 16.48054688 27.6796875 17.73828125 C27.20326385 19.03390523 26.72670029 20.32947778 26.25 21.625 C25.78837838 22.89688733 25.32743308 24.16902034 24.8671875 25.44140625 C22.6160154 31.64188893 20.3315024 37.8292903 18 44 C13.64926665 43.35233635 9.93231007 41.76556403 5.984375 39.91015625 C4.9997226 39.45327675 4.9997226 39.45327675 3.99517822 38.98716736 C2.61563409 38.34515664 1.23737696 37.70037394 -0.13964844 37.05297852 C-2.25317567 36.06100952 -4.37229526 35.08179537 -6.4921875 34.10351562 C-7.83368732 33.47732029 -9.17484562 32.85039268 -10.515625 32.22265625 C-11.15099182 31.92988297 -11.78635864 31.63710968 -12.440979 31.33546448 C-16.88516846 29.22966307 -16.88516846 29.22966307 -18 27 C-9.61044093 27.65061887 -1.31984045 28.74898749 7 30 C6.823479 29.33991943 6.64695801 28.67983887 6.46508789 27.99975586 C5.66007393 24.98009315 4.86124177 21.95882756 4.0625 18.9375 C3.78470703 17.89916016 3.50691406 16.86082031 3.22070312 15.79101562 C1.83528831 10.53311601 0.60580604 5.40624379 0 0 Z " fill="#05B4D4" transform="translate(81,34)"/>
<path d="M0 0 C-3.96 1.98 -3.96 1.98 -8 4 C-8 3.34 -8 2.68 -8 2 C-9.32 1.67 -10.64 1.34 -12 1 C-10.56496445 0.63597631 -9.12683494 0.28413409 -7.6875 -0.0625 C-6.88699219 -0.25972656 -6.08648437 -0.45695312 -5.26171875 -0.66015625 C-3 -1 -3 -1 0 0 Z " fill="#089BB6" transform="translate(191,82)"/>
<path d="M0 0 C2.83328987 2.83328987 3.7191375 4.35446828 5 8 C4.34 8 3.68 8 3 8 C2.67 9.32 2.34 10.64 2 12 C1.34 8.04 0.68 4.08 0 0 Z " fill="#08A1BE" transform="translate(81,34)"/>
<path d="M0 0 C0.66 0 1.32 0 2 0 C2.66 3.3 3.32 6.6 4 10 C0.89448334 6.89448334 0.18676066 5.10801767 -1 1 C-0.67 0.67 -0.34 0.34 0 0 Z " fill="#089BB7" transform="translate(140,183)"/>
<path d="M0 0 C0.33 0.99 0.66 1.98 1 3 C1.66 3 2.32 3 3 3 C1.25 8.75 1.25 8.75 -1 11 C-0.67 7.37 -0.34 3.74 0 0 Z " fill="#089CB8" transform="translate(61,153)"/>
<path d="M0 0 C0.66 0.33 1.32 0.66 2 1 C0.8141763 4.37503669 -0.27573689 6.64722731 -3 9 C-2.44271087 5.65626525 -1.64826111 2.96687001 0 0 Z " fill="#08A2BE" transform="translate(115,177)"/>
<path d="M0 0 C2.64 0.99 5.28 1.98 8 3 C8 3.99 8 4.98 8 6 C5.0280615 4.87548273 2.66559313 3.77706209 0 2 C0 1.34 0 0.68 0 0 Z " fill="#099BB6" transform="translate(39,112)"/>
</svg>
